<svg width="112" height="32" viewBox="0 0 112 32" fill="none" xmlns="http://www.w3.org/2000/svg">
<path d="M38.66 16.46C38.66 15.3133 38.8933 14.3133 39.36 13.46C39.8267 12.5933 40.4733 11.9267 41.3 11.46C42.1267 10.98 43.0733 10.74 44.14 10.74C45.5133 10.74 46.6467 11.0867 47.54 11.78C48.4467 12.46 49.0533 13.42 49.36 14.66H46.34C46.18 14.18 45.9067 13.8067 45.52 13.54C45.1467 13.26 44.68 13.12 44.12 13.12C43.32 13.12 42.6867 13.4133 42.22 14C41.7533 14.5733 41.52 15.3933 41.52 16.46C41.52 17.5133 41.7533 18.3333 42.22 18.92C42.6867 19.4933 43.32 19.78 44.12 19.78C45.2533 19.78 45.9933 19.2733 46.34 18.26H49.36C49.0533 19.46 48.4467 20.4133 47.54 21.12C46.6333 21.8267 45.5 22.18 44.14 22.18C43.0733 22.18 42.1267 21.9467 41.3 21.48C40.4733 21 39.8267 20.3333 39.36 19.48C38.8933 18.6133 38.66 17.6067 38.66 16.46ZM59.9713 19.34H54.4113L53.4913 22H50.5513L55.5713 8.02H58.8313L63.8513 22H60.8913L59.9713 19.34ZM59.2113 17.1L57.1913 11.26L55.1712 17.1H59.2113ZM69.9677 22.18C69.061 22.18 68.2477 22.02 67.5277 21.7C66.8077 21.3667 66.2343 20.92 65.8077 20.36C65.3943 19.8 65.1677 19.18 65.1277 18.5H67.9477C68.001 18.9267 68.2077 19.28 68.5677 19.56C68.941 19.84 69.401 19.98 69.9477 19.98C70.481 19.98 70.8943 19.8733 71.1877 19.66C71.4943 19.4467 71.6477 19.1733 71.6477 18.84C71.6477 18.48 71.461 18.2133 71.0877 18.04C70.7277 17.8533 70.1477 17.6533 69.3477 17.44C68.521 17.24 67.841 17.0333 67.3077 16.82C66.7877 16.6067 66.3343 16.28 65.9477 15.84C65.5743 15.4 65.3877 14.8067 65.3877 14.06C65.3877 13.4467 65.561 12.8867 65.9077 12.38C66.2677 11.8733 66.7743 11.4733 67.4277 11.18C68.0943 10.8867 68.8743 10.74 69.7677 10.74C71.0877 10.74 72.141 11.0733 72.9277 11.74C73.7143 12.3933 74.1477 13.28 74.2277 14.4H71.5477C71.5077 13.96 71.321 13.6133 70.9877 13.36C70.6677 13.0933 70.2343 12.96 69.6877 12.96C69.181 12.96 68.7877 13.0533 68.5077 13.24C68.241 13.4267 68.1077 13.6867 68.1077 14.02C68.1077 14.3933 68.2943 14.68 68.6677 14.88C69.041 15.0667 69.621 15.26 70.4077 15.46C71.2077 15.66 71.8677 15.8667 72.3877 16.08C72.9077 16.2933 73.3543 16.6267 73.7277 17.08C74.1143 17.52 74.3143 18.1067 74.3277 18.84C74.3277 19.48 74.1477 20.0533 73.7877 20.56C73.441 21.0667 72.9343 21.4667 72.2677 21.76C71.6143 22.04 70.8477 22.18 69.9677 22.18Z" fill="#44444F"/>
<rect x="2" y="3" width="24" height="24" rx="8" stroke="#0073FF" stroke-width="4"/>
<rect x="13" y="4" width="12" height="12" rx="6" stroke="#0073FF" stroke-width="4"/>
</svg>
